<svg xmlns="http://www.w3.org/2000/svg" viewBox="0 0 592 348" width="592" height="348">
  <rect width="592" height="348" fill="#FFFFFF"/>
  <rect x="0" y="0" width="592" height="8" fill="#DA291C"/>

  <!-- App-Icon links (vereinfachte Version des Icons) -->
  <g transform="translate(56, 94)">
    <rect x="0" y="0" width="160" height="160" rx="28" fill="#FFFFFF" stroke="#E4E4E4" stroke-width="3"/>
    <g fill="#1A1A1A" transform="translate(24,24) scale(0.33)">
      <path d="M0 0h112v112H0z M16 16v80h80v-80z" fill-rule="evenodd"/>
      <rect x="32" y="32" width="48" height="48" rx="6"/>
      <path d="M224 0h112v112H224z M240 16v80h80v-80z" fill-rule="evenodd"/>
      <rect x="256" y="32" width="48" height="48" rx="6"/>
      <path d="M0 224h112v112H0z M16 240v80h80v-80z" fill-rule="evenodd"/>
      <rect x="32" y="256" width="48" height="48" rx="6"/>
      <rect x="128" y="128" width="16" height="16"/>
      <rect x="192" y="160" width="16" height="16"/>
      <rect x="160" y="192" width="16" height="16"/>
      <rect x="256" y="144" width="16" height="16"/>
      <rect x="288" y="176" width="16" height="16"/>
      <rect x="224" y="224" width="16" height="16"/>
      <rect x="272" y="256" width="16" height="16"/>
      <rect x="304" y="288" width="16" height="16"/>
      <rect x="144" y="256" width="16" height="16"/>
      <rect x="176" y="288" width="16" height="16"/>
    </g>
    <rect x="56" y="56" width="48" height="48" rx="6" fill="#DA291C"/>
    <g fill="#FFFFFF">
      <rect x="75" y="64" width="10" height="32"/>
      <rect x="64" y="75" width="32" height="10"/>
    </g>
  </g>

  <!-- Titel + Tagline -->
  <text x="260" y="150" font-family="Inter" font-weight="700" font-size="38" fill="#1A1A1A">Swiss QR Invoice</text>
  <text x="260" y="192" font-family="Inter" font-weight="400" font-size="20" fill="#555555">Compliant Swiss QR bills,</text>
  <text x="260" y="220" font-family="Inter" font-weight="400" font-size="20" fill="#555555">straight from your boards.</text>
  <text x="260" y="262" font-family="Inter" font-weight="600" font-size="16" fill="#DA291C">DE · FR · IT · EN</text>
</svg>
